<?xml version="1.0" encoding="utf-8"?>
<!-- Generator: Adobe Illustrator 22.0.1, SVG Export Plug-In . SVG Version: 6.00 Build 0)  -->
<svg version="1.1" id="Layer_1" xmlns="http://www.w3.org/2000/svg" xmlns:xlink="http://www.w3.org/1999/xlink" x="0px" y="0px"
	 viewBox="0 0 66 66" style="enable-background:new 0 0 66 66;" xml:space="preserve">
<style type="text/css">
	.st0{fill:#63A63E;}
	.st1{fill:#FFFFFF;}
</style>
<circle class="st0" cx="33" cy="33" r="33"/>
<path class="st1" d="M49.6,21.1c-0.4-0.4-1-0.4-1.4,0L29.8,39.5c-0.4,0.4-1,0.4-1.4,0l-8.1-8.1c-0.4-0.4-1-0.4-1.4,0l-3.5,3.5
	c-0.4,0.4-0.4,1,0,1.4l13.1,13.1c0.4,0.4,1,0.4,1.4,0l3.5-3.5c0.4-0.4,1-1,1.4-1.4L53.2,26c0.4-0.4,0.4-1,0-1.4L49.6,21.1z"/>
</svg>
